<svg id="Capa_1" data-name="Capa 1" xmlns="http://www.w3.org/2000/svg" viewBox="0 0 640 56.08"><defs><style>.cls-1{fill:#30beef;}.cls-2{fill:#12448d;}</style></defs><path class="cls-1" d="M31.31,5.81V16c-4.33-3.76-9-5.85-13.86-5.85-4.73,0-7.29,2.33-7.29,5.61,0,2.81,1,5,8.65,9.22,10.34,5.68,14.74,9.61,14.74,17.86,0,8.73-7,15-17.3,15A30.84,30.84,0,0,1,.06,53V41.94c4.81,4.89,10,7.37,15.31,7.37,4.72,0,7.61-2.72,7.61-6.17,0-3.28-1-5.45-11-10.81C5,28.32-.26,24.07-.26,16.06S6.39,1.72,17,1.72A26.8,26.8,0,0,1,31.31,5.81Z" transform="translate(0.26 -1.72)"/><path class="cls-1" d="M62.23,2.44c11.3,0,17.63,5.61,17.63,13.78,0,5.45-3,9.54-8.1,11.62,8.18,2,12.5,7.45,12.5,14.18,0,11.38-10,15.06-20.91,15.06H43V2.44ZM53.5,25.6h5.69c7.13,0,10.25-3.21,10.25-8,0-5.21-2.8-7.54-9.29-7.54H53.5Zm7.85,23.87c8.17,0,12.18-2.56,12.18-8.17,0-5.13-3.69-8.17-12.42-8.17H53.5V49.47Z" transform="translate(0.26 -1.72)"/><path class="cls-2" d="M125.84,2.44V57.08H115.26V2.44Z" transform="translate(0.26 -1.72)"/><path class="cls-2" d="M150.08,2.44,184,41V2.44h10.34V57.08H185L151.36,18.79V57.08H141V2.44Z" transform="translate(0.26 -1.72)"/><path class="cls-2" d="M220.22,2.44,254.11,41V2.44h10.33V57.08h-9.29L221.5,18.79V57.08H211.17V2.44Z" transform="translate(0.26 -1.72)"/><path class="cls-2" d="M336.83,29.68c0,14.9-10.89,28.12-30.12,28.12-18.43,0-29.48-13-29.48-28,0-13.86,9.69-28.12,29.8-28.12C325.06,1.72,336.83,14.14,336.83,29.68ZM288,29.84c0,10.9,8.34,18.43,18.75,18.43,10.74,0,19.23-6.49,19.23-18.59,0-9-6.57-18.42-18.91-18.42C295.17,11.26,288,19.27,288,29.84Z" transform="translate(0.26 -1.72)"/><path class="cls-2" d="M352.1,2.44l15.23,36.22L382.39,2.44h10.73L369.65,57.56H365L341.29,2.44Z" transform="translate(0.26 -1.72)"/><path class="cls-2" d="M424.66,2.2l24.27,54.88H438.12l-6.33-14.5h-23.4l-6.08,14.5H391.49L415.12,2.2Zm-12.9,32.53h16.58l-8.49-19.79Z" transform="translate(0.26 -1.72)"/><path class="cls-2" d="M496.09,2.44v9h-19.3V57.08H466.21V11.42H447.06v-9Z" transform="translate(0.26 -1.72)"/><path class="cls-2" d="M562.23,29.68c0,14.9-10.9,28.12-30.13,28.12-18.43,0-29.48-13-29.48-28,0-13.86,9.69-28.12,29.8-28.12C550.45,1.72,562.23,14.14,562.23,29.68Zm-48.8.16c0,10.9,8.34,18.43,18.75,18.43,10.74,0,19.23-6.49,19.23-18.59,0-9-6.57-18.42-18.91-18.42C520.57,11.26,513.43,19.27,513.43,29.84Z" transform="translate(0.26 -1.72)"/><path class="cls-2" d="M595.27,2.44c11.85,0,17.94,7.05,17.94,15.79,0,6.17-3,11-9.05,13.54,3.37,2,5.13,3.84,9.53,11.13l8.42,14.18H610.17l-7.53-13c-4.89-8.49-8.09-10-12.34-10h-3v23H576.68V2.44Zm-8,23.88h5.36c5.53,0,9.86-1.52,9.86-8,0-4.89-3-7.85-8.81-7.85h-6.41Z" transform="translate(0.26 -1.72)"/><path class="cls-2" d="M620.68,13.77a9.49,9.49,0,0,1,4.74-8.22,9.6,9.6,0,0,1,9.63,0A9.13,9.13,0,0,1,638.5,9a9.7,9.7,0,0,1,0,9.56A9.27,9.27,0,0,1,635,22.06a9.49,9.49,0,0,1-4.74,1.25,9.51,9.51,0,0,1-9.55-9.54Zm1.76,0a7.66,7.66,0,0,0,1,3.93,7.78,7.78,0,0,0,2.84,2.83,7.58,7.58,0,0,0,3.87,1,7.84,7.84,0,0,0,6.79-3.9,7.63,7.63,0,0,0,1-3.89A7.48,7.48,0,0,0,637,9.89,7.79,7.79,0,0,0,634.12,7a7.78,7.78,0,0,0-11.68,6.73Zm8.69-5a3.36,3.36,0,0,1,2.28.77,2.55,2.55,0,0,1,.87,2,2.76,2.76,0,0,1-.76,2,3,3,0,0,1-2,.9v.05a2.83,2.83,0,0,1,1,.64,9.45,9.45,0,0,1,1.25,1.81L635,19h-2.31l-.47-.9A15.47,15.47,0,0,0,631,16a4.35,4.35,0,0,0-1-1,2,2,0,0,0-1.11-.27h-.85V19h-1.87V8.76Zm-.73,4.42a2.3,2.3,0,0,0,1.41-.38,1.28,1.28,0,0,0,.49-1.08,1.21,1.21,0,0,0-.52-1.07,2.28,2.28,0,0,0-1.38-.37h-2.3v2.9Z" transform="translate(0.26 -1.72)"/></svg>