<svg id="Capa_1" data-name="Capa 1" xmlns="http://www.w3.org/2000/svg" xmlns:xlink="http://www.w3.org/1999/xlink" viewBox="0 0 640 409.33"><defs><style>.cls-1{fill:#30beef;}.cls-2{fill:#12448d;}.cls-3{fill:url(#Degradado_sin_nombre_54);}.cls-4{fill:url(#Degradado_sin_nombre_57);}.cls-5{fill:url(#Degradado_sin_nombre_52);}.cls-6{fill:url(#Degradado_sin_nombre_52-2);}.cls-7{fill:url(#Degradado_sin_nombre_52-3);}.cls-8{fill:url(#Degradado_sin_nombre_21);}.cls-9{fill:url(#Degradado_sin_nombre_21-2);}.cls-10{fill:url(#Degradado_sin_nombre_52-4);}</style><radialGradient id="Degradado_sin_nombre_54" cx="317.39" cy="251.64" r="37.95" gradientUnits="userSpaceOnUse"><stop offset="0" stop-color="#12448d"/><stop offset="0.14" stop-color="#153f80"/><stop offset="0.45" stop-color="#19376a"/><stop offset="0.74" stop-color="#1c335d"/><stop offset="1" stop-color="#1d3158"/></radialGradient><radialGradient id="Degradado_sin_nombre_57" cx="347.23" cy="120.78" r="75.8" gradientUnits="userSpaceOnUse"><stop offset="0" stop-color="#12448d"/><stop offset="0.27" stop-color="#134389"/><stop offset="0.55" stop-color="#153e7d"/><stop offset="0.82" stop-color="#193769"/><stop offset="1" stop-color="#1d3158"/></radialGradient><linearGradient id="Degradado_sin_nombre_52" x1="253.49" y1="53.32" x2="360.89" y2="239.35" gradientUnits="userSpaceOnUse"><stop offset="0.05" stop-color="#104f8e"/><stop offset="0.34" stop-color="#1d61ab"/><stop offset="0.44" stop-color="#1b6bb3"/><stop offset="0.61" stop-color="#1787c8"/><stop offset="0.63" stop-color="#168ccc"/><stop offset="1" stop-color="#30beef"/></linearGradient><linearGradient id="Degradado_sin_nombre_52-2" x1="304.99" y1="247.33" x2="329.79" y2="290.29" xlink:href="#Degradado_sin_nombre_52"/><linearGradient id="Degradado_sin_nombre_52-3" x1="304.99" y1="205.64" x2="329.79" y2="248.6" xlink:href="#Degradado_sin_nombre_52"/><radialGradient id="Degradado_sin_nombre_21" cx="344.34" cy="126.3" r="34.25" gradientUnits="userSpaceOnUse"><stop offset="0" stop-color="#12448d"/><stop offset="0.26" stop-color="#144186"/><stop offset="0.64" stop-color="#183a71"/><stop offset="1" stop-color="#1d3158"/></radialGradient><radialGradient id="Degradado_sin_nombre_21-2" cx="294.53" cy="120.65" r="46.38" xlink:href="#Degradado_sin_nombre_21"/><linearGradient id="Degradado_sin_nombre_52-4" x1="315.41" y1="193.15" x2="373.38" y2="92.75" xlink:href="#Degradado_sin_nombre_52"/></defs><path class="cls-1" d="M31.57,392.67v10.18c-4.33-3.77-9-5.85-13.86-5.85s-7.29,2.32-7.29,5.6c0,2.81,1,5,8.65,9.22,10.33,5.69,14.74,9.61,14.74,17.86,0,8.74-7,15-17.3,15A30.85,30.85,0,0,1,.32,439.86V428.8c4.81,4.89,10,7.37,15.3,7.37,4.73,0,7.62-2.72,7.62-6.16,0-3.29-1-5.45-11-10.82-7-4-12.26-8.25-12.26-16.26s6.65-14.35,17.23-14.35A26.89,26.89,0,0,1,31.57,392.67Z" transform="translate(0 -35.33)"/><path class="cls-1" d="M62.49,389.31c11.29,0,17.62,5.6,17.62,13.78,0,5.44-3,9.53-8.09,11.61,8.17,2,12.5,7.45,12.5,14.18,0,11.38-10,15.07-20.91,15.07H43.26V389.31Zm-8.73,23.15h5.68c7.13,0,10.26-3.21,10.26-8,0-5.21-2.8-7.53-9.29-7.53H53.76Zm7.85,23.87c8.17,0,12.17-2.56,12.17-8.17,0-5.13-3.68-8.17-12.41-8.17H53.76v16.34Z" transform="translate(0 -35.33)"/><path class="cls-2" d="M126.09,389.31V444H115.52V389.31Z" transform="translate(0 -35.33)"/><path class="cls-2" d="M150.34,389.31l33.89,38.53V389.31h10.33V444h-9.29l-33.65-38.3V444H141.29V389.31Z" transform="translate(0 -35.33)"/><path class="cls-2" d="M220.48,389.31l33.89,38.53V389.31H264.7V444h-9.29l-33.65-38.3V444H211.42V389.31Z" transform="translate(0 -35.33)"/><path class="cls-2" d="M337.09,416.54c0,14.91-10.89,28.13-30.12,28.13-18.43,0-29.48-13.06-29.48-28,0-13.86,9.69-28.13,29.8-28.13C325.32,388.58,337.09,401,337.09,416.54Zm-48.79.17c0,10.89,8.33,18.42,18.75,18.42,10.73,0,19.23-6.49,19.23-18.59,0-9.05-6.57-18.42-18.91-18.42C295.43,398.12,288.3,406.13,288.3,416.71Z" transform="translate(0 -35.33)"/><path class="cls-2" d="M352.36,389.31l15.23,36.21,15.06-36.21h10.73l-23.47,55.12h-4.65l-23.71-55.12Z" transform="translate(0 -35.33)"/><path class="cls-2" d="M424.92,389.06,449.19,444H438.38l-6.33-14.51h-23.4L402.56,444H391.75l23.63-54.89ZM412,421.59H428.6l-8.49-19.79Z" transform="translate(0 -35.33)"/><path class="cls-2" d="M496.35,389.31v9H477V444H466.47V398.28H447.32v-9Z" transform="translate(0 -35.33)"/><path class="cls-2" d="M562.48,416.54c0,14.91-10.89,28.13-30.12,28.13-18.43,0-29.48-13.06-29.48-28,0-13.86,9.69-28.13,29.8-28.13C550.71,388.58,562.48,401,562.48,416.54Zm-48.79.17c0,10.89,8.33,18.42,18.75,18.42,10.74,0,19.23-6.49,19.23-18.59,0-9.05-6.57-18.42-18.91-18.42C520.82,398.12,513.69,406.13,513.69,416.71Z" transform="translate(0 -35.33)"/><path class="cls-2" d="M595.53,389.31c11.85,0,17.94,7.05,17.94,15.78,0,6.17-3,11-9.05,13.54,3.36,2,5.13,3.84,9.53,11.13L622.36,444H610.43l-7.53-13c-4.89-8.5-8.1-10-12.34-10h-3v23H576.94V389.31Zm-8,23.87h5.37c5.53,0,9.86-1.52,9.86-8,0-4.89-3-7.85-8.82-7.85h-6.41Z" transform="translate(0 -35.33)"/><path class="cls-2" d="M620.94,400.63a9.58,9.58,0,0,1,14.36-8.23,9.13,9.13,0,0,1,3.45,3.5,9.68,9.68,0,0,1,0,9.57,9.55,9.55,0,0,1-13,3.4,9.37,9.37,0,0,1-4.74-8.24Zm1.75,0a7.8,7.8,0,0,0,3.9,6.76,7.53,7.53,0,0,0,3.87,1,7.75,7.75,0,0,0,7.82-7.79,7.59,7.59,0,0,0-1-3.88,7.79,7.79,0,0,0-2.85-2.85,7.79,7.79,0,0,0-11.69,6.73Zm8.69-5a3.33,3.33,0,0,1,2.28.77,2.55,2.55,0,0,1,.88,2,2.75,2.75,0,0,1-.76,2,3,3,0,0,1-2,.91v.05a2.56,2.56,0,0,1,1,.63,8.94,8.94,0,0,1,1.26,1.81l1.2,2h-2.3l-.48-.91a15.07,15.07,0,0,0-1.15-2,4.35,4.35,0,0,0-.95-1,2,2,0,0,0-1.11-.27h-.86v4.24h-1.86v-10.2Zm-.72,4.42a2.23,2.23,0,0,0,1.41-.38,1.27,1.27,0,0,0,.49-1.08,1.21,1.21,0,0,0-.52-1.07,2.3,2.3,0,0,0-1.38-.37h-2.31V400Z" transform="translate(0 -35.33)"/><polygon class="cls-3" points="266.26 254.62 368.52 267.93 368.52 241.3 266.26 235.35 266.26 254.62"/><path class="cls-4" d="M281.37,51.06s73.38-21.63,100.45,43.79c0,0,24.22,63.4-41.56,92-.37.16,5.77,6.74,13.1,11.76a47.75,47.75,0,0,0,17,6.77c9.8-6.05,24-17.7,36-38.78,0,0,19.92-43-8.39-88.11,0,0-25.41-38.85-66.08-40.56,0,0-30.42-5.06-43.53,2.28Z" transform="translate(0 -35.33)"/><path class="cls-5" d="M368.52,234.94s-99-17.36-120.27-70.57c0,0-20.26-54,10.54-90.28,0,0,27.28-33.37,88.44-33.68,0,0-58.93-21-104.37,22.33,0,0-46.87,42.48-18.56,114.32,0,0,22,55.73,96.5,71.13Z" transform="translate(0 -35.33)"/><polygon class="cls-6" points="368.52 267.93 266.26 296.31 266.26 269.69 368.52 241.3 368.52 267.93"/><polygon class="cls-7" points="368.52 226.24 266.26 254.62 266.26 228 368.52 199.61 368.52 226.24"/><path class="cls-8" d="M322.94,147.73s15.29-5.93,17.65-23c0,0,2.72-12.25-4.83-23.33,0,0,10.54-15.15,21-18.23,0,0,15.57,19.48,7,49.2,0,0-5.18,24.52-35.39,37.15A25.25,25.25,0,0,1,322.94,147.73Z" transform="translate(0 -35.33)"/><path class="cls-9" d="M292.1,145.57s5.78,22.83,8.37,27.29c0,0-41.23-5.1-45.59-47.78,0,0-2.89-41.52,37-54.49a54.93,54.93,0,0,1,42.35,5s-33,1.5-49.87,23.92C284.35,99.52,265.43,124.57,292.1,145.57Z" transform="translate(0 -35.33)"/><path class="cls-10" d="M370.32,205.36s-32-6.79-45.59-44.29c0,0-7.6-34.35,6.29-53.23,0,0,12.4-19.13,25.7-24.71,0,0-24.37-3-35.28,6.14,0,0-34.28,20.93-28.74,62.36C292.7,151.63,303.42,215.3,370.32,205.36Z" transform="translate(0 -35.33)"/></svg>